#N canvas 511 102 960 978 12;
#X obj 478 394 noteout;
#X obj 468 260 makenote 127 50;
#X obj 638 191 random 2000;
#X obj 113 184 vsl 30 40 1 127 0 0 empty empty Velo 3 -9 0 10 -262144
-1 -1 0 1;
#X floatatom 113 231 4 0 0 0 - - -;
#X obj 178 184 vsl 30 40 125 2000 0 0 empty empty Time 3 -9 0 10 -262144
-1 -1 0 1;
#X floatatom 178 231 4 0 0 0 - - -;
#X obj 147 225 tgl 25 0 empty empty RChan -2 -5 0 10 -262144 -1 -1
1 1;
#X obj 743 99 spigot;
#X msg 554 359 0;
#X msg 588 361 17;
#X obj 536 189 random 127;
#X obj 466 126 t f b b;
#X obj 116 110 hsl 90 20 1 98 0 0 note-0$-min empty min 5 8 0 10 -262144
-1 -1 2500 1;
#X obj 116 130 hsl 90 20 3 100 0 0 note-0$-max empty max 5 8 0 10 -262144
-1 -1 5200 1;
#N canvas 246 243 447 351 random-minmax 0;
#X obj 152 162 t b f;
#X obj 119 140 -;
#X obj 119 162 + 1;
#X obj 9 249 + 5;
#X obj 9 152 inlet;
#X obj 9 179 random 100;
#X floatatom 320 135 10 0 0 0 - - -;
#X floatatom 230 135 10 0 0 0 - - -;
#X obj 207 84 unpack f f;
#X obj 119 55 t l l;
#X obj 119 83 unpack f f;
#X obj 119 105 max;
#X obj 207 106 min;
#X obj 119 31 pack f f;
#X obj 12 274 / 100;
#X obj 12 299 * 127;
#X obj 119 5 inlet;
#X obj 218 4 inlet;
#X obj 12 324 outlet;
#X connect 0 0 1 0;
#X connect 0 1 1 1;
#X connect 0 1 3 1;
#X connect 1 0 2 0;
#X connect 2 0 5 1;
#X connect 3 0 14 0;
#X connect 4 0 5 0;
#X connect 5 0 3 0;
#X connect 8 0 12 0;
#X connect 8 1 12 1;
#X connect 9 0 10 0;
#X connect 9 1 8 0;
#X connect 10 0 11 0;
#X connect 10 1 11 1;
#X connect 11 0 7 0;
#X connect 11 0 1 0;
#X connect 12 0 6 0;
#X connect 12 0 0 0;
#X connect 13 0 9 0;
#X connect 14 0 15 0;
#X connect 15 0 18 0;
#X connect 16 0 13 0;
#X connect 17 0 13 1;
#X restore 615 70 pd random-minmax;
#X floatatom 113 149 5 0 0 0 - - -;
#X obj 615 16 inlet;
#X obj 615 42 t b b;
#X obj 154 181 vradio 11 1 0 3 empty empty Chan -5 -8 0 10 -262144
-1 -1 2;
#X floatatom 812 90 5 0 0 0 - - -;
#X obj 743 71 random 3;
#X obj 554 334 sel 0 1 2;
#X msg 625 357 33;
#X connect 1 0 0 0;
#X connect 1 1 0 1;
#X connect 2 0 1 2;
#X connect 3 0 4 0;
#X connect 3 0 11 1;
#X connect 5 0 6 0;
#X connect 7 0 8 1;
#X connect 8 0 19 0;
#X connect 9 0 0 2;
#X connect 10 0 0 2;
#X connect 11 0 1 1;
#X connect 12 0 1 0;
#X connect 12 1 11 0;
#X connect 12 2 2 0;
#X connect 13 0 15 2;
#X connect 14 0 15 1;
#X connect 15 0 12 0;
#X connect 15 0 16 0;
#X connect 17 0 18 0;
#X connect 18 0 15 0;
#X connect 18 1 21 0;
#X connect 19 0 22 0;
#X connect 21 0 8 0;
#X connect 21 0 20 0;
#X connect 22 0 9 0;
#X connect 22 1 10 0;
#X connect 22 2 23 0;
#X connect 23 0 0 2;
#X coords 0 -1 1 1 120 160 2 100 100;
