#N canvas 704 146 803 315 12;
#X obj 22 17 randomseq;
#X obj 22 119 r seq-0;
#X obj 157 119 r seq-1;
#X obj 288 119 r seq-2;
#X obj 417 120 r seq-3;
#X obj 544 120 r seq-4;
#X obj 672 120 r seq-5;
#X obj 22 144 inout2;
#X obj 157 144 inout2;
#X obj 288 144 inout2;
#X obj 417 145 inout2;
#X obj 544 145 inout2;
#X obj 672 145 inout2;
#X obj 354 47 random 127;
#X obj 418 74 ctlout;
#X obj 437 46 random 3;
#X obj 354 24 t b b;
#X connect 1 0 7 0;
#X connect 2 0 8 0;
#X connect 3 0 9 0;
#X connect 4 0 10 0;
#X connect 5 0 11 0;
#X connect 6 0 12 0;
#X connect 13 0 14 0;
#X connect 15 0 14 1;
#X connect 16 0 13 0;
#X connect 16 1 15 0;
