#N canvas 0 102 450 490 12;
#X obj 290 70 sel 0 1 2 3 4;
#X obj 208 51 f;
#X obj 208 76 + 1;
#X floatatom 208 126 5 0 0 0 - - -;
#X msg 236 50 0;
#X obj 60 22 metro 500;
#X obj 130 22 random 500;
#X obj 235 20 loadbang;
#X obj 105 108 tgl 15 0 empty empty empty 17 7 0 10 -262144 -1 -1 1
1;
#X obj 105 168 bng 15 250 50 0 seq-0 empty empty 17 7 0 10 -262144
-1 -1;
#X obj 120 168 bng 15 250 50 0 seq-1 empty empty 17 7 0 10 -262144
-1 -1;
#X obj 135 168 bng 15 250 50 0 seq-2 empty empty 17 7 0 10 -262144
-1 -1;
#X obj 150 168 bng 15 250 50 0 seq-3 empty empty 17 7 0 10 -262144
-1 -1;
#X obj 165 167 bng 15 250 50 0 seq-4 empty empty 17 7 0 10 -262144
-1 -1;
#X obj 181 167 bng 15 250 50 0 seq-5 empty empty 17 7 0 10 -262144
-1 -1;
#X obj 131 109 nbx 5 14 50 1000 0 0 empty empty empty 0 -8 0 10 -262144
-1 -1 143 256;
#X obj 27 209 spigot;
#X obj 51 242 spigot;
#X obj 84 281 spigot;
#X obj 117 320 spigot;
#X obj 105 146 tgl 15 0 empty empty empty 17 7 0 10 -262144 -1 -1 1
1;
#X obj 120 146 tgl 15 0 empty empty empty 17 7 0 10 -262144 -1 -1 0
1;
#X obj 135 146 tgl 15 0 empty empty empty 17 7 0 10 -262144 -1 -1 1
1;
#X obj 150 146 tgl 15 0 empty empty empty 17 7 0 10 -262144 -1 -1 1
1;
#X obj 165 146 tgl 15 0 empty empty empty 17 7 0 10 -262144 -1 -1 1
1;
#X obj 181 146 tgl 15 0 empty empty empty 17 7 0 10 -262144 -1 -1 1
1;
#X obj 202 307 spigot;
#X obj 248 348 spigot;
#X obj 208 101 % 6;
#X connect 0 0 16 0;
#X connect 0 1 17 0;
#X connect 0 2 18 0;
#X connect 0 3 19 0;
#X connect 0 4 26 0;
#X connect 0 5 27 0;
#X connect 1 0 2 0;
#X connect 2 0 28 0;
#X connect 4 0 1 1;
#X connect 5 0 6 0;
#X connect 5 0 1 0;
#X connect 6 0 5 1;
#X connect 7 0 4 0;
#X connect 8 0 5 0;
#X connect 15 0 6 1;
#X connect 16 0 9 0;
#X connect 17 0 10 0;
#X connect 18 0 11 0;
#X connect 19 0 12 0;
#X connect 20 0 16 1;
#X connect 21 0 17 1;
#X connect 22 0 18 1;
#X connect 23 0 19 1;
#X connect 24 0 26 1;
#X connect 25 0 27 1;
#X connect 26 0 13 0;
#X connect 27 0 14 0;
#X connect 28 0 1 1;
#X connect 28 0 3 0;
#X connect 28 0 0 0;
#X coords 0 -1 1 1 100 100 2 100 100;
