#N canvas 520 102 450 301 12;
#X declare -path ./lib;
#N canvas 314 102 1466 572 random 1;
#X obj 783 163 sel 0 1 2 3 4;
#X obj 736 45 f;
#X obj 736 70 + 1;
#X obj 802 13 tgl 15 0 empty empty empty 17 7 0 10 -262144 -1 -1 1
1;
#X floatatom 736 120 5 0 0 0 - - -;
#X msg 748 20 0;
#X obj 736 95 % 5;
#N canvas 0 108 426 368 seq 1;
#X obj 37 106 random 100;
#X obj 37 131 / 100;
#X obj 37 156 * 20;
#X obj 36 206 t f b;
#X obj 115 105 random 100;
#X obj 115 130 / 100;
#X obj 37 181 + 11;
#X obj 52 312 noteout;
#X obj 115 153 * 127;
#X obj 115 188 + 10;
#X obj 37 261 makenote 127 50;
#X obj 37 71 t b b;
#X obj 37 45 inlet;
#X obj 111 57 inlet;
#X obj 157 57 inlet;
#X obj 138 233 random 2000;
#X obj 207 55 inlet;
#X connect 0 0 1 0;
#X connect 1 0 2 0;
#X connect 2 0 6 0;
#X connect 3 0 10 0;
#X connect 3 1 4 0;
#X connect 4 0 5 0;
#X connect 5 0 8 0;
#X connect 6 0 3 0;
#X connect 8 0 9 0;
#X connect 9 0 10 1;
#X connect 10 0 7 0;
#X connect 10 1 7 1;
#X connect 11 0 0 0;
#X connect 11 1 15 0;
#X connect 12 0 11 0;
#X connect 13 0 6 1;
#X connect 14 0 9 1;
#X connect 15 0 10 2;
#X connect 16 0 7 2;
#X restore 18 172 pd seq;
#X obj 29 25 vsl 15 128 0 127 0 0 empty empty empty 0 -9 0 10 -262144
-1 -1 0 1;
#X obj 46 27 vsl 15 128 0 127 0 0 empty empty empty 0 -9 0 10 -262144
-1 -1 12700 1;
#N canvas 0 108 426 368 seq 0;
#X obj 16 77 random 100;
#X obj 16 102 / 100;
#X obj 16 127 * 20;
#X obj 15 177 t f b;
#X obj 94 76 random 100;
#X obj 94 101 / 100;
#X obj 16 152 + 11;
#X obj 22 294 noteout;
#X obj 94 124 * 127;
#X obj 94 159 + 10;
#X obj 16 232 makenote 127 50;
#X obj 16 42 t b b;
#X obj 16 16 inlet;
#X obj 90 28 inlet;
#X obj 136 28 inlet;
#X obj 117 205 random 5000;
#X connect 0 0 1 0;
#X connect 1 0 2 0;
#X connect 2 0 6 0;
#X connect 3 0 10 0;
#X connect 3 1 4 0;
#X connect 4 0 5 0;
#X connect 5 0 8 0;
#X connect 6 0 3 0;
#X connect 8 0 9 0;
#X connect 9 0 10 1;
#X connect 10 0 7 0;
#X connect 10 1 7 1;
#X connect 11 0 0 0;
#X connect 11 1 15 0;
#X connect 12 0 11 0;
#X connect 13 0 6 1;
#X connect 14 0 9 1;
#X connect 15 0 10 2;
#X restore 81 171 pd seq;
#X obj 99 26 vsl 15 128 0 127 0 0 empty empty empty 0 -9 0 10 -262144
-1 -1 0 1;
#X obj 119 26 vsl 15 128 0 127 0 0 empty empty empty 0 -9 0 10 -262144
-1 -1 12700 1;
#N canvas 0 116 426 368 seq 0;
#X obj 16 77 random 100;
#X obj 16 102 / 100;
#X obj 16 127 * 20;
#X obj 15 177 t f b;
#X obj 94 76 random 100;
#X obj 94 101 / 100;
#X obj 16 152 + 11;
#X obj 16 263 noteout;
#X obj 94 124 * 127;
#X obj 94 159 + 10;
#X obj 16 232 makenote 127 50;
#X obj 16 42 t b b;
#X obj 16 16 inlet;
#X obj 90 28 inlet;
#X obj 136 28 inlet;
#X obj 117 205 random 5000;
#X connect 0 0 1 0;
#X connect 1 0 2 0;
#X connect 2 0 6 0;
#X connect 3 0 10 0;
#X connect 3 1 4 0;
#X connect 4 0 5 0;
#X connect 5 0 8 0;
#X connect 6 0 3 0;
#X connect 8 0 9 0;
#X connect 9 0 10 1;
#X connect 10 0 7 0;
#X connect 10 1 7 1;
#X connect 11 0 0 0;
#X connect 11 1 15 0;
#X connect 12 0 11 0;
#X connect 13 0 6 1;
#X connect 14 0 9 1;
#X connect 15 0 10 2;
#X restore 180 174 pd seq;
#X obj 198 28 vsl 15 128 0 127 0 0 empty empty empty 0 -9 0 10 -262144
-1 -1 0 1;
#X obj 218 28 vsl 15 128 0 127 0 0 empty empty empty 0 -9 0 10 -262144
-1 -1 12700 1;
#N canvas 0 116 426 368 seq 1;
#X obj 16 77 random 100;
#X obj 16 102 / 100;
#X obj 16 127 * 20;
#X obj 15 177 t f b;
#X obj 94 76 random 100;
#X obj 94 101 / 100;
#X obj 16 152 + 11;
#X obj 16 263 noteout;
#X obj 94 124 * 127;
#X obj 94 159 + 10;
#X obj 16 232 makenote 127 50;
#X obj 16 42 t b b;
#X obj 16 16 inlet;
#X obj 90 28 inlet;
#X obj 136 28 inlet;
#X obj 117 205 random 5000;
#X connect 0 0 1 0;
#X connect 1 0 2 0;
#X connect 2 0 6 0;
#X connect 3 0 10 0;
#X connect 3 1 4 0;
#X connect 4 0 5 0;
#X connect 5 0 8 0;
#X connect 6 0 3 0;
#X connect 8 0 9 0;
#X connect 9 0 10 1;
#X connect 10 0 7 0;
#X connect 10 1 7 1;
#X connect 11 0 0 0;
#X connect 11 1 15 0;
#X connect 12 0 11 0;
#X connect 13 0 6 1;
#X connect 14 0 9 1;
#X connect 15 0 10 2;
#X restore 259 169 pd seq;
#X obj 278 26 vsl 15 128 0 127 0 0 empty empty empty 0 -9 0 10 -262144
-1 -1 0 1;
#X obj 298 26 vsl 15 128 0 127 0 0 empty empty empty 0 -9 0 10 -262144
-1 -1 12700 1;
#N canvas 0 124 426 368 seq 0;
#X obj 16 77 random 100;
#X obj 16 102 / 100;
#X obj 16 127 * 20;
#X obj 15 177 t f b;
#X obj 94 76 random 100;
#X obj 94 101 / 100;
#X obj 16 152 + 11;
#X obj 16 263 noteout;
#X obj 94 124 * 127;
#X obj 94 159 + 10;
#X obj 16 232 makenote 127 50;
#X obj 117 205 random 1000;
#X obj 16 42 t b b;
#X obj 16 16 inlet;
#X obj 90 28 inlet;
#X obj 136 28 inlet;
#X connect 0 0 1 0;
#X connect 1 0 2 0;
#X connect 2 0 6 0;
#X connect 3 0 10 0;
#X connect 3 1 4 0;
#X connect 4 0 5 0;
#X connect 5 0 8 0;
#X connect 6 0 3 0;
#X connect 8 0 9 0;
#X connect 9 0 10 1;
#X connect 10 0 7 0;
#X connect 10 1 7 1;
#X connect 11 0 10 2;
#X connect 12 0 0 0;
#X connect 12 1 11 0;
#X connect 13 0 12 0;
#X connect 14 0 6 1;
#X connect 15 0 9 1;
#X restore 346 171 pd seq;
#X obj 366 27 vsl 15 128 0 127 0 0 empty empty empty 0 -9 0 10 -262144
-1 -1 1200 1;
#X obj 388 25 vsl 15 128 0 127 0 0 empty empty empty 0 -9 0 10 -262144
-1 -1 12700 1;
#N canvas 0 124 426 368 seq 0;
#X obj 16 77 random 100;
#X obj 16 102 / 100;
#X obj 16 127 * 20;
#X obj 15 177 t f b;
#X obj 94 76 random 100;
#X obj 94 101 / 100;
#X obj 16 152 + 11;
#X obj 16 263 noteout;
#X obj 94 124 * 127;
#X obj 94 159 + 10;
#X obj 16 232 makenote 127 50;
#X obj 117 205 random 1000;
#X obj 16 42 t b b;
#X obj 16 16 inlet;
#X obj 90 28 inlet;
#X obj 136 28 inlet;
#X connect 0 0 1 0;
#X connect 1 0 2 0;
#X connect 2 0 6 0;
#X connect 3 0 10 0;
#X connect 3 1 4 0;
#X connect 4 0 5 0;
#X connect 5 0 8 0;
#X connect 6 0 3 0;
#X connect 8 0 9 0;
#X connect 9 0 10 1;
#X connect 10 0 7 0;
#X connect 10 1 7 1;
#X connect 11 0 10 2;
#X connect 12 0 0 0;
#X connect 12 1 11 0;
#X connect 13 0 12 0;
#X connect 14 0 6 1;
#X connect 15 0 9 1;
#X restore 1043 496 pd seq;
#X obj 801 35 metro 500;
#X obj 953 5 vsl 15 128 0 1000 0 0 empty empty empty 0 -9 0 10 -262144
-1 -1 4900 1;
#X obj 871 35 random 500;
#X obj 1150 169 random 100;
#X obj 1150 194 / 100;
#X obj 1150 219 * 20;
#X obj 1149 269 t f b;
#X obj 1228 168 random 100;
#X obj 1228 193 / 100;
#X obj 1150 244 + 11;
#X obj 1228 216 * 127;
#X obj 1228 251 + 10;
#X obj 1149 324 makenote 127 50;
#X obj 1150 134 t b b;
#X obj 1150 108 inlet;
#X obj 1251 297 random 5000;
#X obj 1164 500 noteout 2;
#X floatatom 1149 349 5 0 0 0 - - -;
#X floatatom 1279 412 5 0 0 0 - - -;
#X obj 1331 82 vsl 15 128 0 127 0 0 empty empty empty 0 -9 0 10 -262144
-1 -1 800 1;
#X obj 1396 83 vsl 15 128 0 127 0 0 empty empty empty 0 -9 0 10 -262144
-1 -1 0 1;
#X connect 0 0 7 0;
#X connect 0 1 10 0;
#X connect 0 2 16 0;
#X connect 0 3 13 0;
#X connect 0 4 19 0;
#X connect 0 5 22 0;
#X connect 1 0 2 0;
#X connect 2 0 6 0;
#X connect 3 0 23 0;
#X connect 5 0 1 1;
#X connect 6 0 1 1;
#X connect 6 0 4 0;
#X connect 6 0 0 0;
#X connect 8 0 7 1;
#X connect 9 0 7 2;
#X connect 11 0 10 1;
#X connect 12 0 10 2;
#X connect 14 0 13 1;
#X connect 15 0 13 2;
#X connect 17 0 16 1;
#X connect 18 0 16 2;
#X connect 20 0 19 1;
#X connect 21 0 19 2;
#X connect 23 0 25 0;
#X connect 23 0 26 0;
#X connect 23 0 1 0;
#X connect 24 0 25 1;
#X connect 25 0 23 1;
#X connect 26 0 27 0;
#X connect 27 0 28 0;
#X connect 28 0 32 0;
#X connect 29 0 35 0;
#X connect 29 1 30 0;
#X connect 30 0 31 0;
#X connect 31 0 33 0;
#X connect 32 0 29 0;
#X connect 33 0 34 0;
#X connect 34 0 35 1;
#X connect 35 0 39 0;
#X connect 35 0 40 0;
#X connect 35 1 39 1;
#X connect 36 0 26 0;
#X connect 36 1 38 0;
#X connect 37 0 36 0;
#X connect 38 0 35 2;
#X connect 41 0 39 2;
#X connect 42 0 32 1;
#X connect 43 0 34 1;
#X restore 16 28 pd random test;
#N canvas 435 120 728 498 signal 0;
#X obj 62 388 list split 1;
#X obj 102 450 noteout;
#X obj 62 323 spigot;
#X obj 138 50 sig~ 400;
#X obj 138 167 osc~;
#X obj 219 74 osc~ 100;
#X obj 117 324 tgl 15 0 empty empty empty 17 7 0 10 -262144 -1 -1 0
1;
#X floatatom 137 27 5 0 0 0 - - -;
#X floatatom 219 45 5 0 0 0 - - -;
#X obj 62 358 clone _peaks 20;
#X obj 62 295 sigmund~ -npts 1024 -hop 128 -npeak 20 peaks;
#X obj 138 245 *~;
#X obj 156 223 tgl 15 0 empty empty empty 17 7 0 10 -262144 -1 -1 0
1;
#X obj 26 188 adc~ 1;
#X obj 26 244 *~;
#X obj 44 222 tgl 15 0 empty empty empty 17 7 0 10 -262144 -1 -1 0
1;
#X obj 592 15 tgl 15 0 empty empty empty 17 7 0 10 -262144 -1 -1 0
1;
#X obj 592 42 switch~;
#X text 175 219 <-- fm synth;
#X text 60 219 <-- mic;
#X text 126 271 analizar input...;
#X text 185 355 <-- devuelve 20 picos en valores midi (freq y amp)
;
#X obj 297 252 dac~ 1;
#X obj 297 228 *~;
#X obj 315 206 tgl 15 0 empty empty empty 17 7 0 10 -262144 -1 -1 0
1;
#X obj 496 15 tgl 15 0 empty empty empty 17 7 0 10 -262144 -1 -1 0
1;
#X msg 496 35 \; pd dsp \$1;
#X obj 293 62 *~ 0.5;
#X obj 293 88 +~ 0.5;
#X obj 219 100 *~;
#X floatatom 293 12 5 0 0 0 - - -;
#X floatatom 343 91 5 0 0 0 - - -;
#X obj 293 114 *~ 400;
#X obj 293 36 osc~ 0.1;
#X msg 497 274 npts \$1;
#X msg 605 274 hop \$1;
#X floatatom 497 112 5 0 0 0 - - -;
#X obj 497 137 int;
#X msg 497 163 2 \$1;
#X obj 497 189 pow;
#X floatatom 497 241 0 0 0 0 - - -;
#X obj 497 215 clip 128 32768;
#X floatatom 605 111 5 0 0 0 - - -;
#X obj 605 136 int;
#X msg 605 162 2 \$1;
#X obj 605 188 pow;
#X floatatom 605 240 0 0 0 0 - - -;
#X obj 605 214 clip 128 32768;
#X obj 218 437 spigot;
#X obj 218 463 print;
#X obj 257 414 tgl 15 0 empty empty empty 17 7 0 10 -262144 -1 -1 0
1;
#X text 472 297 (cambia la velocidad de analisis);
#X text 139 322 <-- habilitar para que mande;
#X obj 102 416 t a a;
#X connect 0 1 53 0;
#X connect 2 0 9 0;
#X connect 3 0 4 0;
#X connect 4 0 11 0;
#X connect 4 0 23 0;
#X connect 5 0 29 0;
#X connect 6 0 2 1;
#X connect 7 0 3 0;
#X connect 8 0 5 0;
#X connect 9 0 0 0;
#X connect 10 0 2 0;
#X connect 11 0 10 0;
#X connect 12 0 11 1;
#X connect 13 0 14 0;
#X connect 14 0 10 0;
#X connect 15 0 14 1;
#X connect 16 0 17 0;
#X connect 23 0 22 0;
#X connect 24 0 23 1;
#X connect 25 0 26 0;
#X connect 27 0 28 0;
#X connect 28 0 32 0;
#X connect 29 0 4 0;
#X connect 30 0 33 0;
#X connect 31 0 32 1;
#X connect 32 0 29 1;
#X connect 33 0 27 0;
#X connect 34 0 10 0;
#X connect 35 0 10 0;
#X connect 36 0 37 0;
#X connect 37 0 38 0;
#X connect 38 0 39 0;
#X connect 39 0 41 0;
#X connect 40 0 34 0;
#X connect 41 0 40 0;
#X connect 42 0 43 0;
#X connect 43 0 44 0;
#X connect 44 0 45 0;
#X connect 45 0 47 0;
#X connect 46 0 35 0;
#X connect 47 0 46 0;
#X connect 48 0 49 0;
#X connect 50 0 48 1;
#X connect 53 0 1 0;
#X connect 53 1 48 0;
#X restore 17 63 pd signal test;
#X obj 261 16 declare -path ./lib;
#X text 12 154 y fijate en PD los dispositivos midi;
#X text 11 179 pone en PD uno de salida que te lo reconozca Ableton
como entrada \, y listo;
#X text 13 134 abri ableton primero \, imagino;
