#N canvas 435 242 845 536 12;
#X obj 243 174 random 100;
#X obj 243 199 / 100;
#X obj 243 230 * 20;
#X obj 153 357 t f b;
#X obj 213 337 random 100;
#X obj 213 362 / 100;
#X obj 153 332 + 11;
#X obj 180 489 noteout;
#X obj 213 387 * 127;
#X obj 213 427 + 10;
#X obj 152 459 makenote 127 50;
#X obj 95 -2 inlet;
#X obj 439 259 random 2000;
#X obj 110 116 vsl 30 50 0 127 0 0 empty empty Note 3 -9 0 10 -262144
-1 -1 0 1;
#X floatatom 111 173 4 0 0 0 - - -;
#X obj 144 116 vsl 30 50 1 127 0 0 empty empty Velo 3 -9 0 10 -262144
-1 -1 0 1;
#X floatatom 144 170 4 0 0 0 - - -;
#X obj 178 116 vsl 30 50 125 2000 0 0 empty empty Time 3 -9 0 10 -262144
-1 -1 0 1;
#X floatatom 178 170 4 0 0 0 - - -;
#X obj 19 82 random 2;
#X obj 116 208 hradio 25 1 0 2 empty empty Chan 12 -8 0 10 -262144
-1 -1 1;
#X obj 176 208 tgl 25 0 empty empty RandChan -12 -5 0 10 -262144 -1
-1 0 1;
#X obj 19 107 spigot;
#X obj 217 10 r seq-\$1;
#X obj 65 337 * 17;
#X obj 217 31 spigot;
#X obj 278 31 r seq-\$1-sp;
#X obj 410 35 random 10;
#X obj 360 136 / 1000;
#X obj 360 160 * 127;
#X obj 360 112 random 1000;
#X obj 450 137 / 1000;
#X obj 450 161 * 127;
#X obj 450 113 random 1000;
#X obj 538 135 / 1000;
#X obj 538 159 * 127;
#X obj 538 111 random 1000;
#X obj 448 81 t b b b b;
#X obj 410 59 moses 1;
#X obj 663 42 + 1, f 4;
#X obj 660 8 random 8;
#X obj 678 219 random 2;
#X obj 674 164 moses 3;
#X obj 676 191 b;
#X obj 653 66 t f f;
#X obj 188 37 bng 15 250 50 0 empty empty empty 17 7 0 10 -262144 -1
-1;
#X obj 652 428 s seq-\$1-set;
#X obj 196 66 t b b b b b;
#X obj 641 328 t b b;
#X obj 641 352 del 100;
#X obj 648 301 bng 15 250 50 0 empty empty empty 17 7 0 10 -262144
-1 -1;
#X msg 723 382 color 22 22 0;
#X msg 585 381 color 0 22 0;
#X connect 0 0 1 0;
#X connect 1 0 2 0;
#X connect 2 0 6 0;
#X connect 3 0 10 0;
#X connect 3 1 4 0;
#X connect 4 0 5 0;
#X connect 5 0 8 0;
#X connect 6 0 3 0;
#X connect 8 0 9 0;
#X connect 9 0 10 1;
#X connect 10 0 7 0;
#X connect 10 1 7 1;
#X connect 11 0 47 0;
#X connect 12 0 10 2;
#X connect 13 0 6 1;
#X connect 13 0 14 0;
#X connect 15 0 16 0;
#X connect 15 0 9 1;
#X connect 17 0 18 0;
#X connect 19 0 22 0;
#X connect 20 0 24 0;
#X connect 21 0 22 1;
#X connect 22 0 20 0;
#X connect 23 0 25 0;
#X connect 24 0 7 2;
#X connect 25 0 45 0;
#X connect 25 0 47 0;
#X connect 26 0 25 1;
#X connect 27 0 38 0;
#X connect 28 0 29 0;
#X connect 29 0 13 0;
#X connect 30 0 28 0;
#X connect 31 0 32 0;
#X connect 32 0 15 0;
#X connect 33 0 31 0;
#X connect 34 0 35 0;
#X connect 35 0 17 0;
#X connect 36 0 34 0;
#X connect 37 0 30 0;
#X connect 37 1 33 0;
#X connect 37 2 36 0;
#X connect 37 3 40 0;
#X connect 38 0 37 0;
#X connect 39 0 44 0;
#X connect 40 0 39 0;
#X connect 41 0 21 0;
#X connect 42 0 43 0;
#X connect 43 0 41 0;
#X connect 44 0 38 1;
#X connect 44 1 42 0;
#X connect 47 0 19 0;
#X connect 47 1 0 0;
#X connect 47 2 12 0;
#X connect 47 3 27 0;
#X connect 47 4 48 0;
#X connect 48 0 49 0;
#X connect 48 1 51 0;
#X connect 49 0 52 0;
#X connect 50 0 48 0;
#X connect 51 0 46 0;
#X connect 52 0 46 0;
#X coords 0 -1 1 1 120 150 2 100 100;
