#N canvas 39 79 450 316 12;
#X obj 248 98 f;
#X obj 281 100 + 1;
#X obj 216 27 metro 500;
#X obj 266 50 random 500;
#X obj 107 109 tgl 15 0 empty empty empty 17 7 0 10 -262144 -1 -1 0
1;
#X obj 106 176 bng 15 250 50 0 seq-0 seq-0-set empty 17 7 0 10 -262144
-1 -262144;
#X obj 126 176 bng 15 250 50 0 seq-1 seq-1-set empty 17 7 0 10 -262144
-1 -262144;
#X obj 146 176 bng 15 250 50 0 seq-2 seq-2-set empty 17 7 0 10 -262144
-1 -262144;
#X obj 166 176 bng 15 250 50 0 seq-3 seq-3-set empty 17 7 0 10 -262144
-1 -262144;
#X obj 186 176 bng 15 250 50 0 seq-4 seq-4-set empty 17 7 0 10 -262144
-1 -262144;
#X obj 206 176 bng 15 250 50 0 seq-5 seq-5-set empty 17 7 0 10 -262144
-1 -262144;
#X obj 133 110 nbx 5 14 50 1000 0 0 empty empty empty 0 -8 0 10 -262144
-1 -1 50 256;
#X obj 106 146 tgl 15 0 seq-0-sp seq-0-sp-set empty 17 7 0 10 -262144
-1 -1 1 1;
#X obj 216 51 t b b;
#X obj 316 99 mod 6;
#X obj 126 146 tgl 15 0 seq-1-sp seq-1-sp-set empty 17 7 0 10 -262144
-1 -1 1 1;
#X obj 146 146 tgl 15 0 seq-2-sp seq-2-sp-set empty 17 7 0 10 -262144
-1 -1 1 1;
#X obj 166 146 tgl 15 0 seq-3-sp seq-3-sp-set empty 17 7 0 10 -262144
-1 -1 1 1;
#X obj 186 146 tgl 15 0 seq-4-sp seq-4-sp-set empty 17 7 0 10 -262144
-1 -1 1 1;
#X obj 206 146 tgl 15 0 seq-5-sp seq-5-sp-set empty 17 7 0 10 -262144
-1 -1 1 1;
#X obj 259 206 clone inout 6;
#X obj 316 124 t f f;
#X obj 207 110 bng 15 250 50 0 empty empty empty 17 7 0 10 -262144
-1 -1;
#X msg 259 156 all bang;
#X msg 357 171 vis 5 1;
#X connect 0 0 1 0;
#X connect 1 0 14 0;
#X connect 2 0 13 0;
#X connect 3 0 2 1;
#X connect 4 0 2 0;
#X connect 11 0 3 1;
#X connect 13 0 0 0;
#X connect 13 1 3 0;
#X connect 14 0 21 0;
#X connect 21 0 0 1;
#X connect 21 1 20 0;
#X connect 22 0 23 0;
#X connect 23 0 20 0;
#X connect 24 0 20 0;
#X coords 0 -1 1 1 134 101 2 100 100;
